<svg width="159" height="159" viewBox="0 0 159 159" fill="none" xmlns="http://www.w3.org/2000/svg">
<circle cx="79.5" cy="79.5" r="79.5" fill="url(#paint0_linear_107_45)"/>
<path d="M58.696 103.768C55.0267 103.768 51.7413 102.872 48.84 101.08C45.9387 99.2453 43.656 96.6 41.992 93.144C40.328 89.688 39.496 85.5067 39.496 80.6C39.496 75.6933 40.328 71.512 41.992 68.056C43.656 64.6 45.9387 61.976 48.84 60.184C51.7413 58.3493 55.0267 57.432 58.696 57.432C62.408 57.432 65.6933 58.3493 68.552 60.184C71.4533 61.976 73.736 64.6 75.4 68.056C77.064 71.512 77.896 75.6933 77.896 80.6C77.896 85.5067 77.064 89.688 75.4 93.144C73.736 96.6 71.4533 99.2453 68.552 101.08C65.6933 102.872 62.408 103.768 58.696 103.768ZM58.696 95C60.4453 95 61.96 94.5093 63.24 93.528C64.5627 92.5467 65.5867 90.9893 66.312 88.856C67.08 86.7227 67.464 83.9707 67.464 80.6C67.464 77.2293 67.08 74.4773 66.312 72.344C65.5867 70.2107 64.5627 68.6533 63.24 67.672C61.96 66.6907 60.4453 66.2 58.696 66.2C56.9893 66.2 55.4747 66.6907 54.152 67.672C52.872 68.6533 51.848 70.2107 51.08 72.344C50.3547 74.4773 49.992 77.2293 49.992 80.6C49.992 83.9707 50.3547 86.7227 51.08 88.856C51.848 90.9893 52.872 92.5467 54.152 93.528C55.4747 94.5093 56.9893 95 58.696 95ZM96.8365 103.768C93.7218 103.768 90.6285 103.363 87.5565 102.552C84.4845 101.699 81.8818 100.504 79.7485 98.968L83.7805 91.032C85.4872 92.2693 87.4712 93.2507 89.7325 93.976C91.9938 94.7013 94.2765 95.064 96.5805 95.064C99.1832 95.064 101.231 94.552 102.725 93.528C104.218 92.504 104.965 91.096 104.965 89.304C104.965 87.5973 104.303 86.2533 102.981 85.272C101.658 84.2907 99.5245 83.8 96.5805 83.8H91.8445V76.952L104.325 62.808L105.477 66.52H81.9885V58.2H113.349V64.92L100.933 79.064L95.6845 76.056H98.6925C104.197 76.056 108.357 77.2933 111.173 79.768C113.989 82.2427 115.397 85.4213 115.397 89.304C115.397 91.8213 114.735 94.1893 113.413 96.408C112.09 98.584 110.063 100.355 107.333 101.72C104.602 103.085 101.103 103.768 96.8365 103.768Z" fill="#343045"/>
<defs>
<linearGradient id="paint0_linear_107_45" x1="146" y1="42.5" x2="-3.89567e-06" y2="92" gradientUnits="userSpaceOnUse">
<stop stop-color="#C0B7E8"/>
<stop offset="1" stop-color="#8176AF"/>
</linearGradient>
</defs>
</svg>
