<svg width="159" height="159" viewBox="0 0 159 159" fill="none" xmlns="http://www.w3.org/2000/svg">
<circle cx="79.5" cy="79.5" r="79.5" fill="url(#paint0_linear_107_46)"/>
<path d="M57.696 103.768C53.984 103.768 50.6773 102.851 47.776 101.016C44.8747 99.1813 42.592 96.536 40.928 93.08C39.3067 89.5813 38.496 85.4213 38.496 80.6C38.496 75.7787 39.3067 71.64 40.928 68.184C42.592 64.6853 44.8747 62.0187 47.776 60.184C50.6773 58.3493 53.984 57.432 57.696 57.432C61.408 57.432 64.7147 58.3493 67.616 60.184C70.5173 62.0187 72.7787 64.6853 74.4 68.184C76.064 71.64 76.896 75.7787 76.896 80.6C76.896 85.4213 76.064 89.5813 74.4 93.08C72.7787 96.536 70.5173 99.1813 67.616 101.016C64.7147 102.851 61.408 103.768 57.696 103.768ZM57.696 95C60.4267 95 62.56 93.8267 64.096 91.48C65.6747 89.1333 66.464 85.5067 66.464 80.6C66.464 75.6933 65.6747 72.0667 64.096 69.72C62.56 67.3733 60.4267 66.2 57.696 66.2C55.008 66.2 52.8747 67.3733 51.296 69.72C49.76 72.0667 48.992 75.6933 48.992 80.6C48.992 85.5067 49.76 89.1333 51.296 91.48C52.8747 93.8267 55.008 95 57.696 95ZM122.958 93.592H115.662V103H105.55V93.592H81.4215V86.616L102.542 58.2H113.422L93.8375 85.144H105.87V76.76H115.662V85.144H122.958V93.592Z" fill="#343045"/>
<defs>
<linearGradient id="paint0_linear_107_46" x1="146" y1="42.5" x2="-3.89567e-06" y2="92" gradientUnits="userSpaceOnUse">
<stop stop-color="#C0B7E8"/>
<stop offset="1" stop-color="#8176AF"/>
</linearGradient>
</defs>
</svg>
