<svg width="159" height="159" viewBox="0 0 159 159" fill="none" xmlns="http://www.w3.org/2000/svg">
<circle cx="79.5" cy="79.5" r="79.5" fill="url(#paint0_linear_107_44)"/>
<path d="M58.696 103.768C54.984 103.768 51.6773 102.851 48.776 101.016C45.8747 99.1813 43.592 96.536 41.928 93.08C40.3067 89.5813 39.496 85.4213 39.496 80.6C39.496 75.7787 40.3067 71.64 41.928 68.184C43.592 64.6853 45.8747 62.0187 48.776 60.184C51.6773 58.3493 54.984 57.432 58.696 57.432C62.408 57.432 65.7147 58.3493 68.616 60.184C71.5173 62.0187 73.7787 64.6853 75.4 68.184C77.064 71.64 77.896 75.7787 77.896 80.6C77.896 85.4213 77.064 89.5813 75.4 93.08C73.7787 96.536 71.5173 99.1813 68.616 101.016C65.7147 102.851 62.408 103.768 58.696 103.768ZM58.696 95C61.4267 95 63.56 93.8267 65.096 91.48C66.6747 89.1333 67.464 85.5067 67.464 80.6C67.464 75.6933 66.6747 72.0667 65.096 69.72C63.56 67.3733 61.4267 66.2 58.696 66.2C56.008 66.2 53.8747 67.3733 52.296 69.72C50.76 72.0667 49.992 75.6933 49.992 80.6C49.992 85.5067 50.76 89.1333 52.296 91.48C53.8747 93.8267 56.008 95 58.696 95ZM116.031 94.552V103H82.1745V96.28L99.4545 79.96C101.289 78.2107 102.527 76.7173 103.167 75.48C103.807 74.2 104.127 72.9413 104.127 71.704C104.127 69.912 103.508 68.5467 102.271 67.608C101.076 66.6267 99.3052 66.136 96.9585 66.136C94.9958 66.136 93.2252 66.52 91.6465 67.288C90.0678 68.0133 88.7452 69.1227 87.6785 70.616L80.1265 65.752C81.8758 63.1493 84.2865 61.1227 87.3585 59.672C90.4305 58.1787 93.9505 57.432 97.9185 57.432C101.247 57.432 104.148 57.9867 106.623 59.096C109.14 60.1627 111.081 61.6987 112.447 63.704C113.855 65.6667 114.559 67.992 114.559 70.68C114.559 73.112 114.047 75.3947 113.023 77.528C111.999 79.6613 110.015 82.0933 107.071 84.824L96.7665 94.552H116.031Z" fill="#343045"/>
<defs>
<linearGradient id="paint0_linear_107_44" x1="146" y1="42.5" x2="-3.89567e-06" y2="92" gradientUnits="userSpaceOnUse">
<stop stop-color="#C0B7E8"/>
<stop offset="1" stop-color="#8176AF"/>
</linearGradient>
</defs>
</svg>
