<svg width="159" height="159" viewBox="0 0 159 159" fill="none" xmlns="http://www.w3.org/2000/svg">
<circle cx="79.5" cy="79.5" r="79.5" fill="url(#paint0_linear_107_43)"/>
<path d="M65.696 103.768C61.984 103.768 58.6773 102.851 55.776 101.016C52.8747 99.1813 50.592 96.536 48.928 93.08C47.3067 89.5813 46.496 85.4213 46.496 80.6C46.496 75.7787 47.3067 71.64 48.928 68.184C50.592 64.6853 52.8747 62.0187 55.776 60.184C58.6773 58.3493 61.984 57.432 65.696 57.432C69.408 57.432 72.7147 58.3493 75.616 60.184C78.5173 62.0187 80.7787 64.6853 82.4 68.184C84.064 71.64 84.896 75.7787 84.896 80.6C84.896 85.4213 84.064 89.5813 82.4 93.08C80.7787 96.536 78.5173 99.1813 75.616 101.016C72.7147 102.851 69.408 103.768 65.696 103.768ZM65.696 95C68.4267 95 70.56 93.8267 72.096 91.48C73.6747 89.1333 74.464 85.5067 74.464 80.6C74.464 75.6933 73.6747 72.0667 72.096 69.72C70.56 67.3733 68.4267 66.2 65.696 66.2C63.008 66.2 60.8747 67.3733 59.296 69.72C57.76 72.0667 56.992 75.6933 56.992 80.6C56.992 85.5067 57.76 89.1333 59.296 91.48C60.8747 93.8267 63.008 95 65.696 95ZM106.839 58.2V103H96.4705V66.52H87.5105V58.2H106.839Z" fill="#343045"/>
<defs>
<linearGradient id="paint0_linear_107_43" x1="146" y1="42.5" x2="-3.89567e-06" y2="92" gradientUnits="userSpaceOnUse">
<stop stop-color="#C0B7E8"/>
<stop offset="1" stop-color="#8176AF"/>
</linearGradient>
</defs>
</svg>
