<svg width="292" height="32" viewBox="0 0 292 32" fill="none" xmlns="http://www.w3.org/2000/svg">
<path fill-rule="evenodd" clip-rule="evenodd" d="M260 16C260 7.16344 267.163 0 276 0C284.837 0 292 7.16344 292 16C292 24.8366 284.837 32 276 32C267.163 32 260 24.8366 260 16ZM268 16C268 11.6 271.6 8 276 8C280.4 8 284 11.6 283.9 15.6C283.9 20 280.3 23.6 275.9 23.6C275.1 23.6 274.3 23.5 273.6 23.3C273.9 22.8 274.2 22.2 274.4 21.6C274.5 21.2 275 19.4 275 19.4C275.3 19.9 276.1 20.4 277 20.4C279.6 20.4 281.3 18 281.3 14.9C281.3 12.5 279.3 10.3 276.2 10.3C272.4 10.3 270.5 13 270.5 15.3C270.5 16.7 271 17.9 272.1 18.4C272.3 18.5 272.4 18.4 272.5 18.2C272.6 18.1 272.7 17.7 272.7 17.6C272.771 17.4586 272.741 17.4172 272.683 17.3343C272.659 17.3 272.629 17.2586 272.6 17.2C272.3 16.8 272.1 16.3 272.1 15.6C272.1 13.6 273.6 11.8 276 11.8C278.1 11.8 279.3 13.1 279.3 14.9C279.3 17.3 278.3 19.2 276.8 19.2C275.9 19.2 275.3 18.5 275.5 17.7C275.583 17.2826 275.719 16.8477 275.849 16.4318C276.03 15.8514 276.2 15.3078 276.2 14.9C276.2 14.2 275.8 13.7 275.1 13.7C274.3 13.7 273.6 14.6 273.6 15.8C273.6 16.6 273.9 17.1 273.9 17.1C273.9 17.1 273.1 20.8 272.9 21.5C272.8 22.1 272.8 22.6999 272.8 23.2999C270 22.0999 268 19.3 268 16Z" fill="#C0B7E8"/>
<path d="M224 18.8C222.5 18.8 221.2 17.6 221.2 16C221.2 14.5 222.4 13.2 224 13.2C225.5 13.2 226.8 14.4 226.8 16C226.8 17.5 225.5 18.8 224 18.8Z" fill="#C0B7E8"/>
<path fill-rule="evenodd" clip-rule="evenodd" d="M227.4 9.2H220.6C219.8 9.3 219.4 9.4 219.1 9.5C218.7 9.6 218.4 9.8 218.1 10.1C217.863 10.3374 217.75 10.5748 217.615 10.8617C217.579 10.9373 217.542 11.0166 217.5 11.1C217.485 11.1464 217.467 11.1952 217.448 11.2475C217.343 11.5333 217.2 11.9238 217.2 12.6V19.4C217.3 20.2 217.4 20.6 217.5 20.9C217.6 21.3 217.8 21.6 218.1 21.9C218.337 22.1374 218.575 22.2495 218.862 22.3851C218.937 22.4209 219.017 22.4583 219.1 22.5C219.146 22.5155 219.195 22.5333 219.248 22.5525C219.533 22.6571 219.924 22.8 220.6 22.8H227.4C228.2 22.7 228.6 22.6 228.9 22.5C229.3 22.4 229.6 22.2 229.9 21.9C230.137 21.6626 230.25 21.4252 230.385 21.1383C230.421 21.0626 230.458 20.9835 230.5 20.9C230.515 20.8536 230.533 20.8048 230.552 20.7525C230.657 20.4667 230.8 20.0762 230.8 19.4V12.6C230.7 11.8 230.6 11.4 230.5 11.1C230.4 10.7 230.2 10.4 229.9 10.1C229.663 9.86261 229.425 9.75045 229.138 9.61488C229.063 9.57918 228.983 9.54167 228.9 9.5C228.854 9.48453 228.805 9.46666 228.752 9.44752C228.467 9.3429 228.076 9.2 227.4 9.2ZM224 11.7C221.6 11.7 219.7 13.6 219.7 16C219.7 18.4 221.6 20.3 224 20.3C226.4 20.3 228.3 18.4 228.3 16C228.3 13.6 226.4 11.7 224 11.7ZM229.4 11.6C229.4 12.1523 228.952 12.6 228.4 12.6C227.848 12.6 227.4 12.1523 227.4 11.6C227.4 11.0477 227.848 10.6 228.4 10.6C228.952 10.6 229.4 11.0477 229.4 11.6Z" fill="#C0B7E8"/>
<path fill-rule="evenodd" clip-rule="evenodd" d="M208 16C208 7.16344 215.163 0 224 0C232.837 0 240 7.16344 240 16C240 24.8366 232.837 32 224 32C215.163 32 208 24.8366 208 16ZM220.6 7.7H227.4C228.3 7.8 228.9 7.9 229.4 8.1C230 8.4 230.4 8.6 230.9 9.1C231.4 9.6 231.7 10.1 231.9 10.6C232.1 11.1 232.3 11.7 232.3 12.6V19.4C232.2 20.3 232.1 20.9 231.9 21.4C231.6 22 231.4 22.4 230.9 22.9C230.4 23.4 229.9 23.7 229.4 23.9C228.9 24.1 228.3 24.3 227.4 24.3H220.6C219.7 24.2 219.1 24.1 218.6 23.9C218 23.6 217.6 23.4 217.1 22.9C216.6 22.4 216.3 21.9 216.1 21.4C215.9 20.9 215.7 20.3 215.7 19.4V12.6C215.8 11.7 215.9 11.1 216.1 10.6C216.4 10 216.6 9.6 217.1 9.1C217.6 8.6 218.1 8.3 218.6 8.1C219.1 7.9 219.7 7.7 220.6 7.7Z" fill="#C0B7E8"/>
<path fill-rule="evenodd" clip-rule="evenodd" d="M0 16C0 7.16344 7.16344 0 16 0C24.8366 0 32 7.16344 32 16C32 24.8366 24.8366 32 16 32C7.16344 32 0 24.8366 0 16ZM16 8C20.4 8 24 11.6 24 16C24 20 21.1 23.4 17.1 24V18.3H19L19.4 16H17.2V14.5C17.2 13.9 17.5 13.3 18.5 13.3H19.5V11.3C19.5 11.3 18.6 11.1 17.7 11.1C15.9 11.1 14.7 12.2 14.7 14.2V16H12.7V18.3H14.7V23.9C10.9 23.3 8 20 8 16C8 11.6 11.6 8 16 8Z" fill="#C0B7E8"/>
<path fill-rule="evenodd" clip-rule="evenodd" d="M104 16C104 7.16344 111.163 0 120 0C128.837 0 136 7.16344 136 16C136 24.8366 128.837 32 120 32C111.163 32 104 24.8366 104 16ZM112.2 13.3V24H115.6V13.3H112.2ZM112 9.9C112 11 112.8 11.8 113.9 11.8C115 11.8 115.8 11 115.8 9.9C115.8 8.8 115 8 113.9 8C112.9 8 112 8.8 112 9.9ZM124.6 24H127.8V17.4C127.8 14.1 125.8 13 123.9 13C122.2 13 121 14.1 120.7 14.8V13.3H117.5V24H120.9V18.3C120.9 16.8 121.9 16 122.9 16C123.9 16 124.6 16.5 124.6 18.2V24Z" fill="#C0B7E8"/>
<path d="M174.6 16L170.4 13.6V18.4L174.6 16Z" fill="#C0B7E8"/>
<path fill-rule="evenodd" clip-rule="evenodd" d="M156 16C156 7.16344 163.163 0 172 0C180.837 0 188 7.16344 188 16C188 24.8366 180.837 32 172 32C163.163 32 156 24.8366 156 16ZM178.2 10.7C178.9 10.9 179.4 11.4 179.6 12.1C180 13.4 180 16 180 16C180 16 180 18.6 179.7 19.9C179.5 20.6 179 21.1 178.3 21.3C177 21.6 172 21.6 172 21.6C172 21.6 166.9 21.6 165.7 21.3C165 21.1 164.5 20.6 164.3 19.9C164 18.6 164 16 164 16C164 16 164 13.4 164.2 12.1C164.4 11.4 164.9 10.9 165.6 10.7C166.9 10.4 171.9 10.4 171.9 10.4C171.9 10.4 177 10.4 178.2 10.7Z" fill="#C0B7E8"/>
<path fill-rule="evenodd" clip-rule="evenodd" d="M52 16C52 7.16344 59.1634 0 68 0C76.8366 0 84 7.16344 84 16C84 24.8366 76.8366 32 68 32C59.1634 32 52 24.8366 52 16ZM74.1 11.5C74.8 11.4 75.4 11.3 76 11C75.6 11.7 75 12.3 74.3 12.7C74.5 17.4 71.1 22.5 65 22.5C63.2 22.5 61.5 21.9 60 21C61.7 21.2 63.5 20.7 64.7 19.8C63.2 19.8 62 18.8 61.6 17.5C62.1 17.6 62.6 17.5 63.1 17.4C61.6 17 60.5 15.6 60.5 14.1C61 14.3 61.5 14.5 62 14.5C60.6 13.5 60.1 11.6 61 10.1C62.7 12.1 65.1 13.4 67.8 13.5C67.3 11.5 68.9 9.5 71 9.5C71.9 9.5 72.8 9.9 73.4 10.5C74.2 10.3 74.9 10.1 75.5 9.7C75.3 10.5 74.8 11.1 74.1 11.5Z" fill="#C0B7E8"/>
</svg>
